HIERARCHY
ROOT hip
{
	OFFSET 0.000000 0.000000 0.000000
	CHANNELS 6 Xposition Yposition Zposition Xrotation Zrotation Yrotation 
	JOINT abdomen
	{
		OFFSET 0.000000 3.422050 0.000000
		CHANNELS 3 Xrotation Zrotation Yrotation 
		JOINT chest
		{
			OFFSET 0.000000 8.486693 -0.684411
			CHANNELS 3 Xrotation Zrotation Yrotation 
			JOINT neck
			{
				OFFSET 0.000000 10.266162 -0.273764
				CHANNELS 3 Xrotation Zrotation Yrotation 
				JOINT head
				{
					OFFSET 0.000000 3.148285 0.000000
					CHANNELS 3 Xrotation Zrotation Yrotation 
					End Site
					{
						OFFSET 0.000000 3.148289 0.000000
					}
				}
			}
			JOINT lCollar
			{
				OFFSET 3.422053 6.707223 -0.821293
				CHANNELS 3 Yrotation Zrotation Xrotation 
				JOINT lShldr
				{
					OFFSET 3.285171 0.000000 0.000000
					CHANNELS 3 Zrotation Yrotation Xrotation 
					JOINT lForeArm
					{
						OFFSET 10.129278 0.000000 0.000000
						CHANNELS 3 Yrotation Zrotation Xrotation 
						JOINT lHand
						{
							OFFSET 8.486692 0.000000 0.000000
							CHANNELS 3 Zrotation Yrotation Xrotation 
							End Site
							{
								OFFSET 4.106464 0.000000 0.000000
							}
						}
					}
				}
			}
			JOINT rCollar
			{
				OFFSET -3.558935 6.707223 -0.821293
				CHANNELS 3 Yrotation Zrotation Xrotation 
				JOINT rShldr
				{
					OFFSET -3.148289 0.000000 0.000000
					CHANNELS 3 Zrotation Yrotation Xrotation 
					JOINT rForeArm
					{
						OFFSET -10.266159 0.000000 0.000000
						CHANNELS 3 Yrotation Zrotation Xrotation 
						JOINT rHand
						{
							OFFSET -8.349810 0.000000 0.000000
							CHANNELS 3 Zrotation Yrotation Xrotation 
							End Site
							{
								OFFSET -4.106464 0.000000 0.000000
							}
						}
					}
				}
			}
		}
	}
	JOINT lThigh
	{
		OFFSET 5.338403 -1.642589 1.368821
		CHANNELS 3 Xrotation Zrotation Yrotation 
		JOINT lShin
		{
			OFFSET -2.053232 -20.121670 0.000000
			CHANNELS 3 Xrotation Zrotation Yrotation 
			JOINT lFoot
			{
				OFFSET 0.000000 -19.300380 -1.231939
				CHANNELS 3 Xrotation Yrotation Zrotation 
				End Site
				{
					OFFSET 0.000000 -2.463878 4.653993
				}
			}
		}
	}
	JOINT rThigh
	{
		OFFSET -5.338403 -1.642589 1.368821
		CHANNELS 3 Xrotation Zrotation Yrotation 
		JOINT rShin
		{
			OFFSET 2.053232 -20.121670 0.000000
			CHANNELS 3 Xrotation Zrotation Yrotation 
			JOINT rFoot
			{
				OFFSET 0.000000 -19.300380 -1.231939
				CHANNELS 3 Xrotation Yrotation Zrotation 
				End Site
				{
					OFFSET 0.000000 -2.463878 4.653993
				}
			}
		}
	}
}
MOTION
Frames: 18
Frame Time: 0.033264
0.000000 43.528500 0.000000 0.000000 0.000000 0.000000 0.000000 0.000000 0.000000 0.000000 0.000000 0.000000 0.000000 0.000000 0.000000 0.000000 0.000000 0.000000 0.000000 0.000000 0.000000 0.000000 0.000000 0.000000 0.000000 0.000000 0.000000 0.000000 0.000000 0.000000 0.000000 0.000000 0.000000 0.000000 0.000000 0.000000 0.000000 0.000000 0.000000 0.000000 0.000000 0.000000 0.000000 0.000000 0.000000 0.000000 0.000000 0.000000 0.000000 0.000000 0.000000 0.000000 0.000000 0.000000 0.000000 0.000000 0.000000 0.000000 0.000000 0.000000 
19.995884 43.687695 12.792915 18.997522 0.000000 0.000000 -8.335250 -0.539980 -0.120196 17.660372 -0.666879 -0.799039 -26.001497 0.000000 0.000000 17.998348 0.000000 0.000000 4.490771 7.239853 9.703436 -76.875931 1.302430 -2.080727 20.549227 -28.097076 6.788218 1.743225 -24.554338 4.785589 -8.457708 2.062815 11.265046 74.600266 -4.470794 -1.865151 -7.880803 12.397371 2.805443 7.456435 18.860928 5.203591 -27.278553 8.861238 67.837898 8.863427 2.784269 -1.364860 11.075295 -35.461723 -0.758146 -30.537666 -2.053496 -1.486135 4.201262 -6.542298 0.760503 11.976009 -15.451891 19.592026 
19.995884 43.604591 12.792915 18.997522 0.000000 0.000000 -8.001971 -0.539945 -0.120197 16.172094 -0.666880 -0.799090 -26.001497 0.000000 0.000000 17.998350 0.000000 0.000000 4.383205 7.746364 10.615995 -76.875931 1.302430 -2.080727 21.132263 -28.896566 7.067499 2.115001 -24.769777 5.096404 -8.370271 1.280803 12.153609 74.607903 -4.461200 -1.866616 -8.639008 13.350328 2.940173 7.017946 19.240597 5.508355 -27.968540 9.174921 67.416817 9.826200 3.352852 -1.359219 10.365740 -35.110291 -1.228463 -31.319679 -2.325227 -4.001922 5.444523 -6.853152 0.721426 10.926446 -13.010971 19.017757 
19.995884 43.521488 12.792915 18.997522 0.000000 0.000000 -7.668648 -0.539911 -0.120197 14.679736 -0.666882 -0.799140 -26.001501 0.000000 0.000000 17.998348 0.000000 0.000000 4.267209 8.251774 11.531856 -76.875931 1.302430 -2.080727 21.725012 -29.694384 7.358650 2.486305 -24.987135 5.406357 -8.270548 0.498885 13.044720 74.615547 -4.451604 -1.868079 -9.404003 14.303162 3.088735 6.580302 19.622694 5.810930 -28.662014 9.483809 66.991203 10.791116 3.922132 -1.343969 9.662376 -34.753956 -1.691684 -32.095222 -2.633539 -6.534272 6.691329 -7.163713 0.675435 9.904442 -10.544017 18.490805 
19.995884 43.438385 12.792915 18.997524 0.000000 0.000000 -7.335285 -0.539877 -0.120197 13.183792 -0.666886 -0.799191 -26.001499 0.000000 0.000000 17.998350 0.000000 0.000000 4.142752 8.755861 12.451016 -76.875931 1.302430 -2.080727 22.327839 -30.490276 7.662016 2.857117 -25.206400 5.715425 -8.158504 -0.282574 13.938533 74.623161 -4.442007 -1.869540 -10.176132 15.255466 3.251386 6.143515 20.007174 6.111286 -29.358936 9.787798 66.561157 11.758188 4.491840 -1.319054 8.965211 -34.392818 -2.147798 -32.861771 -2.978226 -9.080258 7.941456 -7.473750 0.622509 8.907110 -8.054500 18.009527 
19.995884 43.355282 12.792915 18.997522 0.000000 0.000000 -7.001887 -0.539843 -0.120198 11.684765 -0.666891 -0.799242 -26.001495 0.000000 0.000000 17.998348 0.000000 0.000000 4.009809 9.258405 13.373482 -76.875931 1.302430 -2.080727 22.941128 -31.284002 7.977958 3.227414 -25.427540 6.023582 -8.034090 -1.063205 14.835183 74.630798 -4.432410 -1.871001 -10.955746 16.206831 3.428397 5.707594 20.393972 6.409391 -30.059208 10.086769 66.126694 12.727433 5.061704 -1.284422 8.274247 -34.027020 -2.596804 -33.616749 -3.358826 -11.636891 9.194668 -7.783033 0.562635 7.931668 -5.545946 17.572479 
19.995884 43.272179 12.792915 18.997522 0.000000 0.000000 -6.668463 -0.539808 -0.120197 10.183151 -0.666897 -0.799292 -26.001497 0.000000 0.000000 17.998348 0.000000 0.000000 3.868360 9.759177 14.299245 -76.875931 1.302430 -2.080727 23.565260 -32.075294 8.306848 3.597184 -25.650553 6.330810 -7.897273 -1.842641 15.734819 74.638428 -4.422814 -1.872460 -11.743204 17.156849 3.620044 5.272550 20.783041 6.705215 -30.762787 10.380627 65.687943 13.698860 5.631450 -1.240031 7.589472 -33.656639 -3.038704 -34.357666 -3.774637 -14.201175 10.450733 -8.091332 0.495809 6.975416 -3.021915 17.178421 
19.995884 43.189075 12.792915 18.997522 0.000000 0.000000 -6.335015 -0.539774 -0.120197 8.679464 -0.666905 -0.799343 -26.001497 0.000000 0.000000 17.998348 0.000000 0.000000 3.718385 10.257957 15.228305 -76.875931 1.302430 -2.080727 24.200645 -32.863903 8.649070 3.966400 -25.875397 6.637082 -7.748015 -2.620508 16.637587 74.646065 -4.413218 -1.873918 -12.538877 18.105091 3.826612 4.838393 21.174328 6.998729 -31.469585 10.669267 65.244957 14.672484 6.200804 -1.185839 6.910884 -33.281822 -3.473504 -35.082047 -4.224705 -16.770102 11.709408 -8.398414 0.422038 6.035730 -0.486008 16.826319 
19.995884 43.105972 12.792915 18.997522 0.000000 0.000000 -6.001552 -0.539740 -0.120197 7.174220 -0.666914 -0.799393 -26.001497 0.000000 0.000000 17.998348 0.000000 0.000000 3.559877 10.754520 16.160652 -76.875931 1.302430 -2.080727 24.847702 -33.649567 9.005024 4.335045 -26.102043 6.942373 -7.586280 -3.396432 17.543612 74.653687 -4.403620 -1.875374 -13.343133 19.051128 4.048394 4.405128 21.567766 7.289902 -32.179527 10.952588 64.797829 15.648312 6.769485 -1.121810 6.238461 -32.902676 -3.901216 -35.787533 -4.707840 -19.340708 12.970454 -8.704049 0.341337 5.110039 2.058167 16.515314 
19.995884 43.022869 12.792915 18.997524 0.000000 0.000000 -5.668075 -0.539706 -0.120196 5.667935 -0.666924 -0.799443 -26.001499 0.000000 0.000000 17.998350 0.000000 0.000000 3.392829 11.248639 17.096273 -76.875931 1.302430 -2.080727 25.506851 -34.431999 9.375121 4.703103 -26.330484 7.246666 -7.412041 -4.170038 18.453041 74.661316 -4.394023 -1.876829 -14.156364 19.994528 4.285695 3.972765 21.963306 7.578708 -32.892521 11.230487 64.346611 16.626360 7.337220 -1.047918 5.572190 -32.519314 -4.321857 -36.471867 -5.222625 -21.910078 14.233619 -9.008006 0.253733 4.195813 4.607008 16.244776 
19.995884 42.939766 12.792915 18.997522 0.000000 0.000000 -5.334594 -0.539671 -0.120195 4.161129 -0.666936 -0.799493 -26.001497 0.000000 0.000000 17.998350 0.000000 0.000000 3.217239 11.740091 18.035158 -76.875938 1.302430 -2.080727 26.178541 -35.210918 9.759788 5.070552 -26.560675 7.549933 -7.225271 -4.940950 19.366001 74.668953 -4.384426 -1.878283 -14.978964 20.934858 4.538827 3.541307 22.360891 7.865114 -33.608490 11.502869 63.891422 17.606625 7.903727 -0.964137 4.912041 -32.131855 -4.735448 -37.132927 -5.767432 -24.475374 15.498651 -9.310058 0.159261 3.290539 7.156925 16.014233 
19.995884 42.856663 12.792915 18.997520 0.000000 0.000000 -5.001113 -0.539637 -0.120194 2.654323 -0.666949 -0.799543 -26.001495 0.000000 0.000000 17.998346 0.000000 0.000000 3.033114 12.228652 18.977282 -76.875931 1.302430 -2.080727 26.863234 -35.986050 10.159465 5.437379 -26.792616 7.852160 -7.025948 -5.708793 20.282629 74.676582 -4.374828 -1.879736 -15.811328 21.871658 4.808109 3.110761 22.760454 8.149094 -34.327343 11.769648 63.432369 18.589123 8.468729 -0.870452 4.257989 -31.740402 -5.142014 -37.768745 -6.340439 -27.033859 16.765291 -9.609971 0.057966 2.391709 9.704374 15.823442 
19.995884 42.773560 12.792915 18.997522 0.000000 0.000000 -4.667637 -0.539603 -0.120193 1.148038 -0.666963 -0.799592 -26.001497 0.000000 0.000000 17.998348 0.000000 0.000000 2.840466 12.714103 19.922630 -76.875931 1.302430 -2.080727 27.561386 -36.757084 10.574601 5.803563 -27.026258 8.153316 -6.814048 -6.473186 21.203043 74.684212 -4.365230 -1.881187 -16.653870 22.804487 5.093870 2.681132 23.161945 8.430620 -35.048981 12.030720 62.969517 19.573853 9.031946 -0.766849 3.610004 -31.345098 -5.541586 -38.377541 -6.939657 -29.582916 18.033285 -9.907529 -0.050098 1.496801 12.245858 15.672342 
19.995884 42.690456 12.792915 18.997519 0.000000 0.000000 -4.334172 -0.539568 -0.120191 -0.357208 -0.666979 -0.799641 -26.001497 0.000000 0.000000 17.998348 0.000000 0.000000 2.639311 13.196215 20.871168 -76.875931 1.302430 -2.080727 28.273516 -37.523754 11.005681 6.169087 -27.261585 8.453387 -6.589564 -7.233758 22.127373 74.691833 -4.355632 -1.882637 -17.507002 23.732885 5.396447 2.252422 23.565302 8.709666 -35.773304 12.286006 62.502972 20.560822 9.593102 -0.653324 2.968046 -30.946033 -5.934192 -38.957714 -7.562951 -32.120064 19.302370 -10.202507 -0.164864 0.603258 14.777963 15.561099 
19.995884 42.607353 12.792915 18.997522 0.000000 0.000000 -4.000725 -0.539534 -0.120189 -1.860893 -0.666996 -0.799689 -26.001497 0.000000 0.000000 17.998348 0.000000 0.000000 2.429673 13.674774 21.822872 -76.875931 1.302430 -2.080727 29.000092 -38.285721 11.453173 6.533934 -27.498564 8.752346 -6.352480 -7.990130 23.055729 74.699478 -4.346035 -1.884086 -18.371147 24.656385 5.716182 1.824635 23.970472 8.986208 -36.500217 12.535426 62.032871 21.550022 10.151920 -0.529878 2.332080 -30.543333 -6.319870 -39.507835 -8.208057 -34.642948 20.572273 -10.494685 -0.286259 -0.291536 17.297338 15.490070 
19.995884 42.524250 12.792915 18.997522 0.000000 0.000000 -3.667299 -0.539500 -0.120187 -3.362507 -0.667014 -0.799737 -26.001499 0.000000 0.000000 17.998348 0.000000 0.000000 2.211581 14.149563 22.777710 -76.875931 1.302430 -2.080727 29.741650 -39.042683 11.917582 6.898088 -27.737171 9.050175 -6.102793 -8.741931 23.988226 74.707108 -4.336435 -1.885534 -19.246737 25.574530 6.053428 1.397770 24.377384 9.260211 -37.229610 12.778888 61.559288 22.541458 10.708123 -0.396517 1.702063 -30.137110 -6.698660 -40.026749 -8.872634 -37.149395 21.842737 -10.783857 -0.414200 -1.190278 19.800753 15.459866 
19.995884 42.441147 12.792915 18.997522 0.000000 0.000000 -3.333903 -0.539466 -0.120185 -4.861536 -0.667033 -0.799784 -26.001499 0.000000 0.000000 17.998350 0.000000 0.000000 1.985073 14.620358 23.735630 -76.875931 1.302430 -2.080727 30.498705 -39.794319 12.399412 7.261535 -27.977392 9.346859 -5.840504 -9.488787 24.924969 74.714737 -4.326836 -1.886980 -20.134201 26.486837 6.408543 0.971830 24.785984 9.531656 -37.961380 13.016322 61.082363 23.535118 11.261439 -0.253255 1.077950 -29.727476 -7.070602 -40.513451 -9.554259 -39.637371 23.113474 -11.069803 -0.548591 -2.124043 22.310581 15.106200 
19.995884 42.358044 12.792915 18.997519 0.000000 0.000000 -3.000540 -0.539432 -0.120183 -6.357481 -0.667054 -0.799830 -26.001497 0.000000 0.000000 17.998348 0.000000 0.000000 1.750188 15.086952 24.696604 -76.875931 1.302430 -2.080727 31.271811 -40.540314 12.899199 7.624256 -28.219175 9.642368 -5.565617 -10.230330 25.866064 74.722351 -4.317237 -1.888424 -21.033993 27.392845 6.781891 0.546814 25.196211 9.800515 -38.695396 13.247643 60.602180 24.530991 11.811593 -0.100112 0.459692 -29.314558 -7.435746 -40.967152 -10.250484 -42.105007 24.384214 -11.352324 -0.689332 -3.059842 24.828354 14.790465 
